<svg width="25" height="25" viewBox="0 0 25 25" fill="none" xmlns="http://www.w3.org/2000/svg">
<g clip-path="url(#clip0_19_162)">
<path d="M18.75 8.33336H17.7083V6.25002C17.7083 3.37502 15.375 1.04169 12.5 1.04169C9.625 1.04169 7.29167 3.37502 7.29167 6.25002V8.33336H6.25001C5.10417 8.33336 4.16667 9.27086 4.16667 10.4167V20.8334C4.16667 21.9792 5.10417 22.9167 6.25001 22.9167H18.75C19.8958 22.9167 20.8333 21.9792 20.8333 20.8334V10.4167C20.8333 9.27086 19.8958 8.33336 18.75 8.33336ZM12.5 17.7084C11.3542 17.7084 10.4167 16.7709 10.4167 15.625C10.4167 14.4792 11.3542 13.5417 12.5 13.5417C13.6458 13.5417 14.5833 14.4792 14.5833 15.625C14.5833 16.7709 13.6458 17.7084 12.5 17.7084ZM15.7292 8.33336H9.27084V6.25002C9.27084 4.46877 10.7188 3.02085 12.5 3.02085C14.2813 3.02085 15.7292 4.46877 15.7292 6.25002V8.33336Z" fill="#D6F1FD"/>
</g>
<defs>
<clipPath id="clip0_19_162">
<rect width="25" height="25" fill="white"/>
</clipPath>
</defs>
</svg>
